<svg xmlns="http://www.w3.org/2000/svg" xmlns:xlink="http://www.w3.org/1999/xlink" width="500" height="500" viewBox="0 0 500 500">
  <defs>
    <linearGradient id="linear-gradient" x1="0.057" y1="0.763" x2="0.872" y2="0.382" gradientUnits="objectBoundingBox">
      <stop offset="0" stop-color="#00509a"/>
      <stop offset="0.42" stop-color="#0092b4"/>
      <stop offset="0.76" stop-color="#299a85"/>
    </linearGradient>
    <linearGradient id="linear-gradient-2" x1="0.054" y1="0.429" x2="0.924" y2="0.603" gradientUnits="objectBoundingBox">
      <stop offset="0" stop-color="#00509a"/>
      <stop offset="0.12" stop-color="#005b9e"/>
      <stop offset="0.34" stop-color="#0079aa"/>
      <stop offset="0.49" stop-color="#0092b4"/>
      <stop offset="1" stop-color="#6ca065"/>
    </linearGradient>
    <linearGradient id="linear-gradient-3" x1="0.175" y1="0.582" x2="0.995" y2="0.382" xlink:href="#linear-gradient"/>
    <linearGradient id="linear-gradient-4" x1="-0.012" y1="0.336" x2="0.901" y2="0.572" xlink:href="#linear-gradient"/>
    <linearGradient id="linear-gradient-5" x1="-9.18" y1="5.314" x2="-0.309" y2="0.901" xlink:href="#linear-gradient"/>
    <linearGradient id="linear-gradient-6" x1="-34.006" y1="18.499" x2="-4.682" y2="3.204" xlink:href="#linear-gradient"/>
    <linearGradient id="linear-gradient-7" x1="-39.536" y1="14.939" x2="-0.537" y2="0.883" xlink:href="#linear-gradient"/>
    <linearGradient id="linear-gradient-8" x1="-4.248" y1="3.846" x2="-0.069" y2="0.909" xlink:href="#linear-gradient"/>
    <linearGradient id="linear-gradient-9" x1="-2.182" y1="4.165" x2="3.081" y2="-2.713" xlink:href="#linear-gradient"/>
    <linearGradient id="linear-gradient-10" x1="-42.023" y1="24.801" x2="32.428" y2="-17.804" xlink:href="#linear-gradient"/>
    <linearGradient id="linear-gradient-11" x1="-2.239" y1="3.082" x2="0.917" y2="0.307" xlink:href="#linear-gradient"/>
    <linearGradient id="linear-gradient-12" x1="-3.727" y1="2.306" x2="13.381" y2="-4.912" xlink:href="#linear-gradient"/>
    <linearGradient id="linear-gradient-13" x1="-3.269" y1="2.525" x2="18.362" y2="-9.131" xlink:href="#linear-gradient"/>
    <linearGradient id="linear-gradient-14" x1="0.114" y1="0.772" x2="2.094" y2="-0.736" xlink:href="#linear-gradient"/>
    <linearGradient id="linear-gradient-15" x1="-0.264" y1="0.5" x2="1.264" y2="0.5" gradientUnits="objectBoundingBox">
      <stop offset="0.03" stop-color="#af408c"/>
      <stop offset="0.45" stop-color="#af408c"/>
      <stop offset="0.94" stop-color="#631c9d"/>
    </linearGradient>
    <linearGradient id="linear-gradient-16" x1="0.079" y1="0.033" x2="0.834" y2="0.715" gradientUnits="objectBoundingBox">
      <stop offset="0" stop-color="#f7e172"/>
      <stop offset="0.02" stop-color="#f3d973"/>
      <stop offset="0.27" stop-color="#cf8781"/>
      <stop offset="0.45" stop-color="#b85489"/>
      <stop offset="0.54" stop-color="#af408c"/>
      <stop offset="0.96" stop-color="#631c9d"/>
    </linearGradient>
    <linearGradient id="linear-gradient-17" x1="0.318" y1="0.078" x2="0.643" y2="0.777" gradientUnits="objectBoundingBox">
      <stop offset="0" stop-color="#f7e172"/>
      <stop offset="0.03" stop-color="#f3d973"/>
      <stop offset="0.35" stop-color="#cf8781"/>
      <stop offset="0.58" stop-color="#b85489"/>
      <stop offset="0.69" stop-color="#af408c"/>
    </linearGradient>
  </defs>
  <g id="Group_2" data-name="Group 2" transform="translate(-979 -2851)">
    <g id="picn" transform="translate(979 2851)">
      <g id="Background">
        <rect id="Rectangle_31" data-name="Rectangle 31" width="500" height="500" fill="#fff"/>
      </g>
      <g id="Objects">
        <path id="Path_1" data-name="Path 1" d="M363,115.44c-2.84-20.38,38.66-8,38.66-30,0-18.1-54-39.33-108.66-34.32s-76,17.16-83.33,30,8.66,34.32-21.34,35-78.67,2.86-82,27.89,31.34,28.6,7.34,36.47-101.34,24.67-94,66.85,54,31.82,68.66,45.41,8,20.74,26,25,44-7.87,53.33,5-16,31.46-6,45.05,70,40.05,127.33,33.61,45.34-27.89,60.67-44.33,84-20.54,84.67-54.35c.67-33.61-42.67-32.18-33.33-57.92s53.52-40.87,42-80.8C434.32,134,363.88,121.85,363,115.44Z" fill="url(#linear-gradient)"/>
        <path id="Path_2" data-name="Path 2" d="M421.66,303.15c-29,9.66-58-3.21-86-11.79-29-8.59-38,26.81-56,42.9-19,18.23-53,16.09-76-1.07,8-16.09,11-39.69-11-44-13-2.15-23,6.43-36,4.29-7-1.07-24-2.14-18-13.94l6-6.44c1-3.22,0-7.51-2-8.58-21-15-45,4.29-68,6.44-14.36,1.39-30.84,2.79-45-2.37,16.57,17.51,47.27,13.62,58.66,24.17,14.67,13.58,8,20.74,26,25s44-7.87,53.33,5-16,31.46-6,45.05,70,40.05,127.33,33.61,45.34-27.89,60.67-44.33,84-20.54,84.67-54.35a33.509,33.509,0,0,0-.78-8.07,23.86,23.86,0,0,1-11.88,8.48Z" fill="url(#linear-gradient-2)"/>
        <path id="Path_3" data-name="Path 3" d="M141.66,193.75c38-5.37,73-23.6,111-20.38,13,22.52-22,38.61-34,54.7-5,6.44-9,17.16-2,22.53,18,13.94,43,15,61,4.29,30-17.17,38-62.22,71-69.72,32.22-7.2,63.64-4.31,94.8,2.05,1.9-6.76,2.06-14.36-.48-23.15-8.66-30-79.1-42.22-80-48.63-2.84-20.38,38.66-8,38.66-30,0-18.1-54-39.33-108.66-34.32s-76,17.16-83.33,30,8.66,34.32-21.34,35-78.67,2.86-82,27.89,31.34,28.6,7.34,36.47c-4.58,1.5-11.1,3.32-18.59,5.58a2.38,2.38,0,0,0,.59,1.21C107.66,199.11,125.66,195.89,141.66,193.75Z" fill="url(#linear-gradient-3)"/>
        <path id="Path_4" data-name="Path 4" d="M401,244.87c7.28-20.07,35.74-33.69,42.47-57.65-31.16-6.36-62.58-9.25-94.8-2.05-33,7.5-41,52.55-71,69.72-18,10.72-43,9.65-61-4.29-7-5.37-3-16.09,2-22.53,12-16.09,47-32.18,34-54.7-38-3.22-73,15-111,20.38-16,2.14-34,5.36-46-6.44a2.38,2.38,0,0,1-.59-1.21c-31.82,9.61-81.35,27.13-75.41,61.27,1.63,9.42,5.23,16.22,10,21.24,14.16,5.16,30.64,3.76,45,2.37,23-2.15,47-21.46,68-6.44,2,1.07,3,5.36,2,8.58l-6,6.44c-6,11.8,11,12.87,18,13.94,13,2.14,23-6.44,36-4.29,22,4.29,19,27.89,11,44,23,17.16,57,19.3,76,1.07,18-16.09,27-51.49,56-42.9,28,8.58,57,21.45,86,11.79a23.86,23.86,0,0,0,11.88-8.43C427.79,269.23,392.47,268.35,401,244.87Z" fill="url(#linear-gradient-4)"/>
        <path id="Path_5" data-name="Path 5" d="M432,230.57c-5.75,4.53-9,21.81,3,24.67s34.15-.67,30.66-16.45C462.65,225.21,443.32,221.63,432,230.57Z" fill="url(#linear-gradient-5)"/>
        <path id="Path_6" data-name="Path 6" d="M480.32,222.7c-1.55-3.16-12-1.43-11.33,4.29S483.65,229.5,480.32,222.7Z" fill="url(#linear-gradient-6)"/>
        <path id="Path_7" data-name="Path 7" d="M370,111.51c0-2.86,2.66-5.36,6.33-3.58s3.33,8.59-.33,8.94a5.35,5.35,0,0,1-6-5.36Z" fill="url(#linear-gradient-7)"/>
        <path id="Path_8" data-name="Path 8" d="M386.08,118.66c-2.68-3.43,12.65-7.7,30-4.31,30,5.85,60.46,31.05,48.86,41.51s-29.17-18.77-47.42-29.06C401.28,117.63,387.75,120.81,386.08,118.66Z" fill="url(#linear-gradient-8)"/>
        <path id="Path_9" data-name="Path 9" d="M197.41,89.16c-2-.12.5,9.25-10.25,9.66-6.89.25-52.5-9.12-54.17,3.75-1,8,22.33,3.71,46.67,6.08,13.57,1.32,18.87-2.86,19.66-9.47C200.06,93,199.4,89.29,197.41,89.16Z" fill="url(#linear-gradient-9)"/>
        <path id="Path_10" data-name="Path 10" d="M189,91.85c.09-1.26-4.67-1.43-4.67.89S188.82,94.17,189,91.85Z" fill="url(#linear-gradient-10)"/>
        <path id="Path_11" data-name="Path 11" d="M349.58,373.71c-.93-.06,6.14-14.35,27.42-13.41s36.85,1.64,49.14-8.71,20.61-18.35,28.95-13.64,7,32-21.5,43.05-46.4-3.88-58.56-7.29C356.6,368.53,353.31,373.94,349.58,373.71Z" fill="url(#linear-gradient-11)"/>
        <path id="Path_12" data-name="Path 12" d="M149.16,331.57c-7.52,0-14.5,9.66-10,15s16.1,4.93,18.5-2.15C159.66,338.54,153.66,331.57,149.16,331.57Z" fill="url(#linear-gradient-12)"/>
        <path id="Path_13" data-name="Path 13" d="M123.32,334.25c1.6-5.47-13.66-12.87-15.66-5S121.66,340,123.32,334.25Z" fill="url(#linear-gradient-13)"/>
        <path id="Path_14" data-name="Path 14" d="M103.66,352.15c-19.37,6.32,12,78.3,49,85.81s38.7-23.44,79-12.87c22.5,5.89,39,12.33,39,4.82,0-4.29-36-25.2-56-26.28s-47.24,13.22-61,2.15C133.66,389.69,126.66,344.64,103.66,352.15Z" fill="url(#linear-gradient-14)"/>
        <path id="Path_15" data-name="Path 15" d="M303.75,67.9c-.61,21.91,20.07,29.46,20.21,34s-7.37,10.1-7.37,10.1,24.18.41,37.92-10.39c15.07-11.85,21.94-41.11-2.05-55.09S304.09,56,303.75,67.9Z" fill="#5a287f" opacity="0.2"/>
        <path id="Path_16" data-name="Path 16" d="M306.42,64.57c-.61,21.91,20.07,29.46,20.2,34s-7.36,10.06-7.36,10.06,24.18.42,37.92-10.39c15.06-11.84,21.93-41.1-2.06-55.09S306.75,52.67,306.42,64.57Z" fill="#ce78a9"/>
        <path id="Path_17" data-name="Path 17" d="M328.23,74a3.8,3.8,0,1,0-.017,2.951A3.81,3.81,0,0,0,328.23,74Z" fill="#fff"/>
        <path id="Path_18" data-name="Path 18" d="M343.22,68.07a3.81,3.81,0,1,0-.021,2.949A3.81,3.81,0,0,0,343.22,68.07Z" fill="#fff"/>
        <path id="Path_19" data-name="Path 19" d="M357.94,62.24a3.81,3.81,0,1,0-2.14,4.95,3.81,3.81,0,0,0,2.14-4.95Z" fill="#fff"/>
        <path id="Path_20" data-name="Path 20" d="M370.14,313.34l-.58-.32a7.71,7.71,0,0,0-2.9-.85c-.54-.08-1.12-.13-1.71-.16a.27.27,0,0,0-.32-.19l-.23.08-.19.07H362.8v-.06a.27.27,0,0,0-.37-.08l-.2.1-.11.06a18,18,0,0,0-2.87.3,2.379,2.379,0,0,0,0-.27.49.49,0,0,0-.6-.36.5.5,0,0,0-.37.6s0,.07,0,.17c-3.59-3.62-17.7-17.18-33-22.87l6-2.73a10.74,10.74,0,0,0,6-7.43,10.77,10.77,0,0,0,1.31-11.08L299,181.6a.41.41,0,0,0,.11-.07c.71-.58,17.24-14.47,10.09-42v-.12c3.42-3.19,1.8-10.75.82-11.31-1.92-1.07-1.62,4.31-1.62,4.31s-1.8-5.59-3.21-5.49-.17,6.58-.17,6.58-3-5.45-4.39-4.6,2.32,7.24,2.32,7.24-3.34-1.5-4-.46c-.53.85,2.86,4.66,6.46,5,5.65,22.07-5.17,34.29-8.1,37.12l-18.55-40.62a10.77,10.77,0,0,0-14.26-5.32l-77.62,35.45a10.74,10.74,0,0,0-6,7.43,10.74,10.74,0,0,0-1.3,11.08l16.54,36.22c-5.37-.16-20.14-2.32-30.92-20.44,2.29-2.8,2-7.9,1-8.11-1.2-.27-2.5,3.16-2.5,3.16s-1.89-7.16-3.49-6.76.17,6.36.17,6.36-3.73-5.46-4.79-4.53,1.62,6.16,1.62,6.16-3.6-4-4.19-1.9c-.3,1.09,3.92,7.6,8.6,7.42a.36.36,0,0,0,0,.09c12.29,20.8,29.66,22.56,35.17,22.56h1.1l41.51,90.91a10.75,10.75,0,0,0,14.25,5.31l14.63-6.67c5.15-.37,20.66.22,23.69,6,3.25,6.23-.39,16-1.52,18.65h0a.5.5,0,0,0-.91.42,1.108,1.108,0,0,0,.11.2,6.36,6.36,0,0,0-1.41,2.53h0a7.94,7.94,0,0,0-.75,3.52c.22,1.34,2.72,4.47,4.84,5.64,2.64,1.49,6,2.42,6.09-.26v-.65a7.619,7.619,0,0,0-.47-3c-.16-.53-.37-1.08-.59-1.63a.25.25,0,0,0,0-.36,1.619,1.619,0,0,0-.16-.18l-.15-.14c-.19-.44-.38-.86-.59-1.28a.1.1,0,0,0,.05,0,.26.26,0,0,0-.08-.36l-.17-.14-.11-.08a18,18,0,0,0-1.5-2.46l.22-.15a.5.5,0,0,0,.08-.7.53.53,0,0,0-.51-.17c1.57-4,4.8-14,1-21.2-2.11-4-7.21-6.59-15.16-7.56-1.44-.18-2.76-.28-3.93-.34l43.5-19.9c16,4.17,32.43,20.06,35.75,23.4a.54.54,0,0,0-.27.44.49.49,0,0,0,.49.51h.23a6.37,6.37,0,0,0,1.69,2.36h0a8,8,0,0,0,2.86,2.18c1.31.38,5.2-.54,7.17-2C370.23,317.2,372.52,314.57,370.14,313.34Z" fill="#5a287f" opacity="0.2"/>
        <path id="Path_21" data-name="Path 21" d="M337.26,269.89A10.75,10.75,0,0,1,332,284.14l-77.63,35.45a10.76,10.76,0,0,1-14.25-5.32L180.19,183.16a10.76,10.76,0,0,1,5.32-14.25l77.62-35.45a10.76,10.76,0,0,1,14.26,5.31Z" fill="#e0e1e4"/>
        <path id="Path_22" data-name="Path 22" d="M309.83,136.74c3.42-3.19,1.8-10.75.81-11.3-1.91-1.08-1.61,4.31-1.61,4.31s-1.8-5.6-3.21-5.5-.17,6.59-.17,6.59-3-5.46-4.39-4.61,2.32,7.24,2.32,7.24-3.34-1.49-4-.46c-.54.85,2.86,4.67,6.46,5,6.36,24.84-8.17,37.22-8.8,37.74a2,2,0,0,0,2.54,3.09c.7-.58,17.23-14.47,10.09-42A.515.515,0,0,1,309.83,136.74Z" fill="#262119"/>
        <path id="Path_23" data-name="Path 23" d="M339.26,265.64A10.75,10.75,0,0,1,334,279.89l-77.63,35.45a10.76,10.76,0,0,1-14.3-5.34L182.19,178.91a10.76,10.76,0,0,1,5.32-14.25l77.62-35.45a10.76,10.76,0,0,1,14.26,5.31Z" fill="#fff"/>
        <rect id="Rectangle_32" data-name="Rectangle 32" width="89.99" height="134.04" transform="matrix(0.91, -0.415, 0.415, 0.91, 190.542, 178.367)" fill="url(#linear-gradient-15)"/>
        <path id="Path_24" data-name="Path 24" d="M272.39,141l-.58.27c1.94,52.8-8.86,104.88-19.45,156.23l75.71-34.57Z" fill="#5a287f" opacity="0.2"/>
        <path id="Path_25" data-name="Path 25" d="M292.48,294.48a5.7,5.7,0,1,1,5.28-3.586,5.72,5.72,0,0,1-5.28,3.586Zm0-10.4a4.7,4.7,0,1,0,4.27,2.74,4.7,4.7,0,0,0-4.27-2.74Z" fill="#6f6f6e"/>
        <path id="Path_26" data-name="Path 26" d="M232.93,151.9a3.49,3.49,0,1,0-1.73,4.63,3.49,3.49,0,0,0,1.73-4.63Z" fill="#222221"/>
        <path id="Path_27" data-name="Path 27" d="M238.31,149.44a1.62,1.62,0,1,0-.8,2.14,1.62,1.62,0,0,0,.8-2.14Z" fill="#222221"/>
        <path id="Path_28" data-name="Path 28" d="M230.59,194.25a3.94,3.94,0,1,0,.091,3.032,3.95,3.95,0,0,0-.091-3.032Z" fill="#262119"/>
        <path id="Path_29" data-name="Path 29" d="M263.2,179.36a3.94,3.94,0,1,0,.111,3.02A3.94,3.94,0,0,0,263.2,179.36Z" fill="#262119"/>
        <path id="Path_30" data-name="Path 30" d="M245.69,194.4a6.24,6.24,0,0,1,5.93.48,16.39,16.39,0,0,1-4.06,2.66,13.87,13.87,0,0,1-6,1.48,7,7,0,0,1,4.13-4.62Z" fill="#d68d98"/>
        <path id="Path_31" data-name="Path 31" d="M252,185.6c2.41,1.19,3.84,5.42-.39,9.28a6.24,6.24,0,0,0-5.93-.48,7,7,0,0,0-4.17,4.62c-4,0-6.82-2.17-6.68-4.54.2-3.84,5.43-1.89,9.55-4.22C248.26,188.08,249.53,184.37,252,185.6Z" fill="#262119"/>
        <path id="Path_32" data-name="Path 32" d="M230.72,151.07a.64.64,0,0,0-.69-.59.6.6,0,1,0,0,1.18.64.64,0,0,0,.69-.59Z" fill="#fff"/>
        <path id="Path_33" data-name="Path 33" d="M198.77,219.34c-.8.08-19.83,1.65-33-20.4,2.29-2.8,2-7.89,1-8.11-1.19-.27-2.49,3.16-2.49,3.16s-1.9-7.15-3.49-6.76.16,6.36.16,6.36-3.72-5.46-4.79-4.53,1.63,6.16,1.63,6.16-3.6-4-4.19-1.9c-.3,1.09,3.91,7.6,8.6,7.42a.36.36,0,0,0,0,.09c12.29,20.8,29.66,22.56,35.17,22.56,1,0,1.58-.06,1.71-.07a2.05,2.05,0,0,0,1-.42,5.13,5.13,0,0,0-1.31-3.56Z" fill="#262119"/>
        <path id="Path_34" data-name="Path 34" d="M292.62,341.16a1.993,1.993,0,0,1-1.81-2.85c.05-.12,5.61-12.12,1.83-19.38-3-5.81-18.61-6.39-23.73-6-1.09.07.25-3.43,2.5-3.62a43.851,43.851,0,0,1,9.62.23q12,1.5,15.15,7.56c4.71,9-1.49,22.37-1.75,22.93A2,2,0,0,1,292.62,341.16Z" fill="#262119"/>
        <path id="Path_35" data-name="Path 35" d="M298.63,346c-3.14-1.52-4.88,2.47-4.88,2.47v.05a15.35,15.35,0,0,1-4.06-3.95,4.46,4.46,0,0,1-.76-3.83,6.39,6.39,0,0,1,1.57-2.71c2.46,2.24,4.57.89,4.57.89a23.74,23.74,0,0,1,3.6,7.08Z" fill="#c39"/>
        <path id="Path_36" data-name="Path 36" d="M299.07,349.61c-.09,2.68-3.45,1.74-6.09.26-2.12-1.18-4.62-4.3-4.84-5.64a7.9,7.9,0,0,1,.75-3.52h0a4.46,4.46,0,0,0,.76,3.83,15.35,15.35,0,0,0,4.06,3.95c2.32,1.52,4.45,1.9,5.08,1.25.06-.06.28-.83.32-.91Z" fill="#e3e3e3"/>
        <path id="Path_37" data-name="Path 37" d="M293.75,348.44s1.74-4,4.88-2.47h0c.48,1.54.67,2.88.31,3.56a.8.8,0,0,1-.15.21c-.63.65-2.76.27-5.08-1.25Z" fill="#fff"/>
        <path id="Path_38" data-name="Path 38" d="M293.2,344.65a3.489,3.489,0,0,1,.58-.61,4.181,4.181,0,0,1,.71-.49,5.089,5.089,0,0,1,.95-.38,3.461,3.461,0,0,1,1.06-.06,1.531,1.531,0,0,1,.49.12,1.941,1.941,0,0,1,.41.17,2,2,0,0,1,.52.4,1.622,1.622,0,0,1,.16.18.27.27,0,0,1,0,.37.28.28,0,0,1-.26,0h-.05l-.19-.08a1.59,1.59,0,0,0-.46-.17,2.659,2.659,0,0,0-1.41,0,7.291,7.291,0,0,0-1.46.56l-.67.34h0a.29.29,0,0,1-.37-.12.31.31,0,0,1-.01-.23Z" fill="#fff"/>
        <path id="Path_39" data-name="Path 39" d="M292.51,342.7a2.449,2.449,0,0,1,.52-.63,3.31,3.31,0,0,1,1.62-.82,3.111,3.111,0,0,1,1,0,2,2,0,0,1,.44.11,3.336,3.336,0,0,1,.38.16,2.732,2.732,0,0,1,.5.32l.17.14a.27.27,0,0,1,.08.37.26.26,0,0,1-.36.08s-.28-.09-.66-.17a2.631,2.631,0,0,0-.65-.08,2.251,2.251,0,0,0-.73.05,3.489,3.489,0,0,0-.72.2c-.21.1-.44.18-.61.28l-.6.34h0a.28.28,0,0,1-.38-.09A.29.29,0,0,1,292.51,342.7Z" fill="#fff"/>
        <path id="Path_40" data-name="Path 40" d="M293.48,339.82h-.45a3.52,3.52,0,0,1-2.84-1.82.5.5,0,0,1,.91-.41,2.81,2.81,0,0,0,3.86.81.5.5,0,0,1,.63.78,3.51,3.51,0,0,1-2.11.64Z" fill="#fff"/>
        <path id="Path_41" data-name="Path 41" d="M359.78,310.63c-.8-.84-18.6-19.46-37.1-24.84a3.82,3.82,0,0,0-2.85,3.38c18,4.32,36.85,24,37.05,24.21a2,2,0,0,0,2.9-2.75Z" fill="#262119"/>
        <path id="Path_42" data-name="Path 42" d="M367.33,309.51c-2.72,2.19.14,5.47.14,5.47h0a15.21,15.21,0,0,1-5.31,2,4.45,4.45,0,0,1-3.78-.95,6.37,6.37,0,0,1-1.78-2.58c3.08-1.26,2.76-3.75,2.76-3.75a23.879,23.879,0,0,1,7.94-.22Z" fill="#c39"/>
        <path id="Path_43" data-name="Path 43" d="M370.81,310.67c2.38,1.23.09,3.87-2.38,5.62-2,1.41-5.86,2.33-7.17,2a8.07,8.07,0,0,1-2.86-2.19h0a4.45,4.45,0,0,0,3.78.95,15.209,15.209,0,0,0,5.31-2c2.37-1.45,3.62-3.21,3.31-4.06,0-.08-.63-.6-.69-.68Z" fill="#e3e3e3"/>
        <path id="Path_44" data-name="Path 44" d="M367.47,315s-2.86-3.28-.14-5.47h0c1.6.23,2.89.63,3.35,1.25a.709.709,0,0,1,.13.22c.31.85-.94,2.61-3.31,4.06Z" fill="#fff"/>
        <path id="Path_45" data-name="Path 45" d="M363.81,313.85a3.68,3.68,0,0,1-.3-.78,4.06,4.06,0,0,1-.14-.86,4,4,0,0,1,.07-1,3.12,3.12,0,0,1,.4-1,1.779,1.779,0,0,1,.31-.4,2.923,2.923,0,0,1,.34-.29,2.07,2.07,0,0,1,.58-.29l.23-.07a.26.26,0,0,1,.32.19.28.28,0,0,1-.07.25h0l-.15.13a2.68,2.68,0,0,0-.35.34,2.081,2.081,0,0,0-.36.56,2.61,2.61,0,0,0-.24.73,7.112,7.112,0,0,0-.11,1.55c0,.45,0,.75,0,.75h0a.28.28,0,0,1-.26.28.29.29,0,0,1-.27-.09Z" fill="#fff"/>
        <path id="Path_46" data-name="Path 46" d="M361.76,313.64a2.6,2.6,0,0,1-.35-.74,3.24,3.24,0,0,1-.05-1.82,3.18,3.18,0,0,1,.43-.91,2,2,0,0,1,.29-.35,2.485,2.485,0,0,1,.31-.27,2.538,2.538,0,0,1,.5-.31l.2-.09a.27.27,0,0,1,.37.07.28.28,0,0,1-.08.37s-.2.21-.44.52a3.612,3.612,0,0,0-.36.56,2.461,2.461,0,0,0-.26.67,3.09,3.09,0,0,0-.12.73v.68a4.335,4.335,0,0,0,.05.69h0a.276.276,0,0,1-.49.2Z" fill="#fff"/>
        <path id="Path_47" data-name="Path 47" d="M356.5,313.71h0a.5.5,0,0,1,0-1h0a2.53,2.53,0,0,0,2-1.31,2.65,2.65,0,0,0,.4-1.82.514.514,0,0,1,1-.24,3.61,3.61,0,0,1-.52,2.59,3.52,3.52,0,0,1-2.88,1.78Z" fill="#fff"/>
        <path id="Path_48" data-name="Path 48" d="M82.36,117.52c-10.26,5.85-9,43.21-.9,48.16s22.06,6.3,22.06,6.3,7.65,12.16,10.35,12.16,8.1-11.71,8.1-11.71,26.78-1.91,29.49-6.41,6.52-40.85-3.83-46.25S94.4,110.65,82.36,117.52Z" fill="#5a287f" opacity="0.2"/>
        <path id="Path_49" data-name="Path 49" d="M80.86,114.52c-10.26,5.85-9,43.21-.9,48.16S102,169,102,169s7.65,12.16,10.35,12.16,8.1-11.71,8.1-11.71,26.8-1.93,29.55-6.45,6.52-40.85-3.83-46.25S92.9,107.65,80.86,114.52Z" fill="url(#linear-gradient-16)"/>
        <path id="Path_50" data-name="Path 50" d="M111,135.28s-5.84-12-14.34-6.58c-4.73,3-4.56,12.15,0,18.06,4.17,5.42,13.46,9.36,15.19,9.28,3.88-.17,24.6-13.6,16.2-26.33C122.44,121.27,112.82,129.21,111,135.28Z" fill="#fff"/>
        <path id="Path_51" data-name="Path 51" d="M451.35,161.59c-2.57-16.38-20.51-29.85-51.65-29.84-27.11,0-34.32,28.53-34.32,28.53a11.6,11.6,0,0,0-13.49,9.3l-5.77,31.35a11.56,11.56,0,0,0,7.56,13l-.11.32c-.14,12.12.69,23,10.44,30.69,18.44,14.46,47.7,16,63.23,2.86a28.779,28.779,0,0,0,5.8-6.63C445.75,221.08,451.59,192,452,173A65.688,65.688,0,0,0,451.35,161.59Zm-58.12,59.63a11.61,11.61,0,0,0,11.58-9.48l5.77-31.34A11.58,11.58,0,0,0,404.5,168h0a37.14,37.14,0,0,1,6.85-12.75l.08.08s4.65-2.95,9.79,1.21c8.46,6.86,3.81,25.74,1.05,39.08-5.39,26.1-14,36-26.86,41.89l-.09.05a24.6,24.6,0,0,1-2.09-16.34Z" fill="#5a287f" opacity="0.2"/>
        <path id="Path_52" data-name="Path 52" d="M449.35,159.26a65.57,65.57,0,0,1,.61,11.41c-.86-9.36-5.13-23.25-21-25.48-9.16-1.28-15.45,2.84-19.6,7.72a37.14,37.14,0,0,0-6.85,12.74h0a11.361,11.361,0,0,0-3.22-1.11L363.38,158s7.21-28.52,34.32-28.53C428.84,129.41,446.78,142.88,449.35,159.26Z" fill="#424268"/>
        <path id="Path_53" data-name="Path 53" d="M425.11,245.33c-10.9,9.24-25.79,2.07-31.77-10.12h.09c12.86-5.88,21.47-15.79,26.86-41.89,2.76-13.34,7.41-32.22-1.05-39.08-5.14-4.17-9.79-1.22-9.79-1.22l-.08-.07c4.15-4.88,10.44-9,19.6-7.72,15.86,2.23,20.13,16.12,21,25.48-.37,19-6.21,48.07-18.92,68.19a28.62,28.62,0,0,1-5.8,6.64Z" fill="#242436"/>
        <path id="Path_54" data-name="Path 54" d="M391.23,218.89a24.56,24.56,0,0,0,2.11,16.32c6,12.19,20.87,19.36,31.77,10.12l.13.17c-15.53,13.19-44.79,11.6-63.23-2.86-9.75-7.65-10.58-18.58-10.44-30.7l.11-.31a11.3,11.3,0,0,0,1.73.46l35.9,6.61a10.5,10.5,0,0,0,1.92.19Z" fill="#424268"/>
        <path id="Path_55" data-name="Path 55" d="M391.23,218.89a10.5,10.5,0,0,1-1.92-.19l-35.9-6.61a11.3,11.3,0,0,1-1.73-.46,11.57,11.57,0,0,1-7.56-13l5.77-31.35a11.59,11.59,0,0,1,13.49-9.3l35.9,6.61a11.36,11.36,0,0,1,3.22,1.11,11.59,11.59,0,0,1,6.08,12.39l-5.77,31.34a11.61,11.61,0,0,1-11.58,9.46Z" fill="#222221"/>
        <path id="Path_56" data-name="Path 56" d="M398.94,206.33a9.9,9.9,0,0,1-11.52,7.94l-30.66-5.65a9.9,9.9,0,0,1-7.94-11.53l4.93-26.76a9.89,9.89,0,0,1,11.52-7.94L395.93,168a9.89,9.89,0,0,1,7.94,11.52Z" fill="url(#linear-gradient-17)"/>
        <path id="Path_57" data-name="Path 57" d="M369.83,176.5a2.42,2.42,0,1,0-2.82,1.94,2.42,2.42,0,0,0,2.82-1.94Z" fill="#262119"/>
        <path id="Path_58" data-name="Path 58" d="M389,179.59a2.42,2.42,0,1,0-2.82,1.94,2.42,2.42,0,0,0,2.82-1.94Z" fill="#262119"/>
        <path id="Path_59" data-name="Path 59" d="M371.53,178.58l.09.11.23.26c.11.11.25.24.4.4s.36.29.55.46l.7.48c.27.13.55.27.83.43a8.483,8.483,0,0,0,.93.33,6.808,6.808,0,0,0,1,.2l.26.06h1.78a3.252,3.252,0,0,1,.44,0l.42-.11.41-.09L380,181a3.26,3.26,0,0,0,.62-.3,3.733,3.733,0,0,0,.44-.29l.33-.27a.53.53,0,0,1,.72-.21.54.54,0,0,1,.21.72l-.09.17a2.656,2.656,0,0,1-.25.42,3.549,3.549,0,0,1-.47.55,3.44,3.44,0,0,1-.73.6l-.46.29a4.932,4.932,0,0,1-.53.22l-.57.22a5.264,5.264,0,0,0-.65.12l-.68.11H376.3l-.33-.06c-.44-.09-.88-.17-1.3-.3a9.24,9.24,0,0,1-1.2-.52,6.741,6.741,0,0,1-1-.68,5.547,5.547,0,0,1-.77-.76l-.55-.73-.33-.62c-.09-.19-.14-.34-.18-.44a1.306,1.306,0,0,1,0-.14.53.53,0,0,1,.94-.47Z" fill="#262119"/>
        <path id="Path_60" data-name="Path 60" d="M361.2,189.92l-1.17.43a1.5,1.5,0,0,1-.84.11.77.77,0,0,1-.69-.93.85.85,0,0,1,.56-.66l2.93-1a1,1,0,0,1,1.33,1l-1.57,7.8a.95.95,0,0,1-1.85-.38Z" fill="#fff"/>
        <path id="Path_61" data-name="Path 61" d="M369.17,199l-4.34-.88a.9.9,0,0,1-.76-1.06,1.651,1.651,0,0,1,.23-.6,9.26,9.26,0,0,1,3-2.35c.86-.52,2.07-1.05,2.26-2a1.15,1.15,0,0,0-1-1.45,2.79,2.79,0,0,0-1.15,0,2.551,2.551,0,0,1-1,.16.88.88,0,0,1-.74-1c.2-1,2.17-1,3.23-.77,1.93.39,2.81,1.81,2.51,3.3a3.45,3.45,0,0,1-1.55,2.28,31.852,31.852,0,0,0-3.3,2.16l2.94.59a.85.85,0,1,1-.34,1.65Z" fill="#fff"/>
        <path id="Path_62" data-name="Path 62" d="M372.32,199.74a1,1,0,1,1,1.3-.8,1.09,1.09,0,0,1-1.3.8Zm.8-4a1,1,0,1,1,1.31-.81,1.1,1.1,0,0,1-1.31.86Z" fill="#fff"/>
        <path id="Path_63" data-name="Path 63" d="M382,194.93l-.73,3.62a3.12,3.12,0,0,1-6.1-1.23l.74-3.63a3.11,3.11,0,1,1,6.09,1.24Zm-4.24-1-.75,3.72a1.24,1.24,0,1,0,2.42.49l.76-3.72c.17-.84-.05-1.5-.92-1.68s-1.27.39-1.48,1.26Z" fill="#fff"/>
        <path id="Path_64" data-name="Path 64" d="M389.16,196.37l-.73,3.63a3.12,3.12,0,0,1-6.1-1.24l.74-3.62a3.11,3.11,0,1,1,6.09,1.23Zm-4.24-1-.76,3.72a1.24,1.24,0,1,0,2.43.49l.75-3.72c.18-.85,0-1.51-.92-1.69s-1.33.4-1.5,1.25Z" fill="#fff"/>
        <path id="Path_65" data-name="Path 65" d="M400.34,170.06C387.78,185.9,371.9,200,353.42,207.34a10.129,10.129,0,0,0,3.34,1.28l30.66,5.65a9.9,9.9,0,0,0,11.52-7.94l4.93-26.77A9.86,9.86,0,0,0,400.34,170.06Z" fill="#5a287f" opacity="0.2"/>
        <path id="Path_66" data-name="Path 66" d="M255.81,381.21a2.91,2.91,0,0,0,.82-1.59c.53-4.26-3.5-14.2-8.87-23-4.63-7.6-10.28-14.35-14.87-15.86-5.12-1.69-21.3-.26-36.08,3.31-7.93,1.91-15.45,4.45-20.63,7.44-14.48,8.37-32.2,26-16.1,48.72l-.09.07c9,16.81,25.6,26.1,43.13,23.7,13.33-1.83,22.68-16.11,31.19-22.45,5.62-4.19,14.06-10.26,17.56-13.11a12.36,12.36,0,0,0,3.94-7.23Z" fill="#5a287f" opacity="0.2"/>
        <path id="Path_67" data-name="Path 67" d="M160.85,398.18c18.27,23.55,42.33,18.81,50.91,12.72,5.36-3.82,12.32-10.23,19.24-16.24,4.15-3.57,8.28-7,12.07-9.65,5.36-3.74,10.32-5.52,12.24-7.57a12.33,12.33,0,0,1-3.94,7.22c-3.5,2.85-11.94,8.93-17.56,13.11-8.51,6.34-17.86,20.62-31.19,22.45-17.53,2.4-34.11-6.89-43.13-23.7l.09-.06C160,397,160.4,397.61,160.85,398.18Z" fill="#46466b"/>
        <path id="Path_68" data-name="Path 68" d="M247.26,352.84l-.16.1s-5.64,1.49-12.87,3.88v-.08c-1.64-3.34-7.92-3.13-14.77.08a27.56,27.56,0,0,0-7,4.34,217.549,217.549,0,0,0-16.08-20.52l-.08-.35c14.78-3.56,31-5,36.08-3.31C237,338.49,242.63,345.24,247.26,352.84Z" fill="#616199"/>
        <path id="Path_69" data-name="Path 69" d="M255.31,377.44c-1.92,2.05-6.88,3.83-12.24,7.57-3.79,2.64-7.92,6.08-12.07,9.65l-.21-.25a148.762,148.762,0,0,0-13-25.31v-.17a61.636,61.636,0,0,0,7.5-2.85c5.18-2.19,11.59-3.91,9-9.26,7.23-2.39,12.87-3.88,12.87-3.88l.16-.1c5.37,8.81,9.4,18.76,8.87,23a2.88,2.88,0,0,1-.88,1.6Z" fill="#616199"/>
        <path id="Path_70" data-name="Path 70" d="M230.79,394.41l.21.25c-6.92,6-13.88,12.42-19.24,16.24-8.58,6.09-32.64,10.83-50.91-12.72-.45-.57-.87-1.14-1.27-1.72-16.1-22.71,1.62-40.36,16.1-48.73,5.18-3,12.7-5.53,20.63-7.44l.08.35a217.55,217.55,0,0,1,16.08,20.52c-1.94,1.87-2.94,4-1.7,6.48,1.1,2.17,3.88,2.11,6.93,1.29v.17a148.761,148.761,0,0,1,13.09,25.31Z" fill="#7979b7"/>
        <path id="Path_71" data-name="Path 71" d="M247.14,353.1l-1.37.53c-.44.17-1,.34-1.58.55s-1.31.44-2.07.68-1.58.5-2.46.74-1.79.55-2.76.78l-1.47.38-.76.17-.37.08-.36.15L231,358.34l-15.79,6.31-.08-.24L230.86,358l2.93-1.2c1-.41,1.93-.8,2.87-1.14s1.85-.65,2.72-.95,1.7-.52,2.47-.74,1.47-.42,2.11-.55,1.18-.28,1.64-.36c.92-.18,1.45-.25,1.45-.25Z" fill="#535484"/>
        <path id="Path_72" data-name="Path 72" d="M234.23,356.82c2.56,5.35-3.85,7.07-9,9.26a61.636,61.636,0,0,1-7.5,2.85c-3,.82-5.83.88-6.93-1.29-1.24-2.45-.24-4.61,1.7-6.48a27.561,27.561,0,0,1,7-4.34c6.85-3.21,13.13-3.42,14.77-.08C234.2,356.77,234.22,356.79,234.23,356.82Z" fill="#24233b"/>
        <path id="Path_73" data-name="Path 73" d="M182.62,374.52a3.37,3.37,0,1,0-2.482.746,3.38,3.38,0,0,0,2.482-.746Z" fill="#262119"/>
        <path id="Path_74" data-name="Path 74" d="M204,390.08a3.38,3.38,0,1,0-2.482.742A3.38,3.38,0,0,0,204,390.08Z" fill="#262119"/>
        <path id="Path_75" data-name="Path 75" d="M192.48,389.69a6.58,6.58,0,0,1-7-.35,9.49,9.49,0,0,1-2.73-2.65h0s5.29-2.88,9.57,2.8Z" fill="#e897be"/>
        <path id="Path_76" data-name="Path 76" d="M196.27,385.23c.26.79-1.32,3.19-3.79,4.46l-.11-.22c-4.28-5.68-9.57-2.8-9.57-2.8h0c-2.58-3.8-1.44-8.43.24-9s3,3,6,4.68C192.52,384.35,195.58,382.94,196.27,385.23Z" fill="#262119"/>
        <path id="Path_77" data-name="Path 77" d="M465.63,289.15l-19.92-22.3a6.062,6.062,0,0,0-.75-.69l-.13-.1a4.5,4.5,0,0,0-.73-.43l-.3-.15a4.881,4.881,0,0,0-.64-.23l-.51-.13h-.09a6.591,6.591,0,0,0-1.09-.09h0a5.51,5.51,0,0,0-3.58,1.39l-36.34,32.47a5.54,5.54,0,0,0-.44,7.82l1.16,1.3-.68.61h0l-17,15.17a2,2,0,0,0-.15,2.77l15.37,17.2a2,2,0,0,0,2.77.16l16.1-14.39h0l1.57-1.4.79.88a5.46,5.46,0,0,0,2.78,1.68h0a4.659,4.659,0,0,0,.91.14h.22a5.671,5.671,0,0,0,.92,0h.16a5.311,5.311,0,0,0,.81-.19l.17-.05a6,6,0,0,0,.86-.39l.18-.11a5.558,5.558,0,0,0,.81-.59L465.2,297a5.52,5.52,0,0,0,.43-7.85Z" fill="#5a287f" opacity="0.2"/>
        <path id="Path_78" data-name="Path 78" d="M420.25,325.12l-18-20.12-1.16-1.3a5.54,5.54,0,0,1,.44-7.82l36.34-32.47a5.54,5.54,0,0,1,7.82.44l19.92,22.3a5.52,5.52,0,0,1-.43,7.81l-36.34,32.48A5.54,5.54,0,0,1,421,326Z" fill="#eac759"/>
        <path id="Path_79" data-name="Path 79" d="M465.63,286.15l-19.92-22.3a5.52,5.52,0,0,0-4.24-1.83c-1.73,22.65-4.52,46.48-17.65,65.66a5.54,5.54,0,0,0,5-1.24L465.2,294a5.52,5.52,0,0,0,.43-7.85Z" fill="#5a287f" opacity="0.1"/>
        <path id="Path_80" data-name="Path 80" d="M420.25,325.12l-17.67,15.79a2,2,0,0,1-2.77-.16l-15.37-17.2a2,2,0,0,1,.15-2.77L402.27,305Z" fill="#e3e3e3"/>
        <path id="Path_81" data-name="Path 81" d="M418.68,326.52l1.57-1.4-18-20.12-.68.6C407.38,312.27,412.43,320.07,418.68,326.52Z" fill="#5a287f" opacity="0.1"/>
        <path id="Path_82" data-name="Path 82" d="M424.54,311.85a1.71,1.71,0,1,0,1.262-.448,1.71,1.71,0,0,0-1.262.448Z" fill="#262119"/>
        <path id="Path_83" data-name="Path 83" d="M413.65,299.66a1.71,1.71,0,1,0,1.239-.433A1.71,1.71,0,0,0,413.65,299.66Z" fill="#262119"/>
        <path id="Path_84" data-name="Path 84" d="M423.74,309a1.73,1.73,0,0,1,.41-.57,2.818,2.818,0,0,1,.55-.45,3.21,3.21,0,0,1,.76-.32,2.63,2.63,0,0,1,.82-.1h.38a1.651,1.651,0,0,1,.32.07,4.813,4.813,0,0,1,.63.23.27.27,0,0,1,.13.36.28.28,0,0,1-.2.15h-.06a5,5,0,0,1-.58.05.82.82,0,0,0-.27,0l-.29.05a1.91,1.91,0,0,0-.61.13,1,1,0,0,0-.3.08l-.29.11-.26.13a1.334,1.334,0,0,0-.24.11c-.3.16-.48.27-.49.28a.263.263,0,1,1-.41-.33Z" fill="#262119"/>
        <path id="Path_85" data-name="Path 85" d="M418,302.94s.14-.18.33-.46a2.11,2.11,0,0,0,.14-.22c0-.09.11-.16.15-.25l.15-.28a.92.92,0,0,0,.11-.29,1.789,1.789,0,0,0,.2-.59,1.289,1.289,0,0,1,.08-.28.82.82,0,0,0,0-.26,3.934,3.934,0,0,1,.11-.58v-.06a.28.28,0,0,1,.33-.19.3.3,0,0,1,.18.17,4.264,4.264,0,0,1,.16.66,1.159,1.159,0,0,1,0,.33,2.483,2.483,0,0,1,0,.38,3,3,0,0,1-.19.8,3.63,3.63,0,0,1-.41.72,3,3,0,0,1-.5.5,2,2,0,0,1-.61.34.27.27,0,0,1-.37-.08.26.26,0,0,1,.14-.36Z" fill="#262119"/>
        <path id="Path_86" data-name="Path 86" d="M424.72,308.37v-.42a5.408,5.408,0,0,0,0-1.11,6.833,6.833,0,0,0-.14-.71c-.1-.24-.15-.51-.28-.76a7.065,7.065,0,0,0-.41-.76c-.17-.21-.4-.5-.52-.67l-.72-.67c-.24-.17-.47-.28-.69-.43a5.272,5.272,0,0,0-.74-.31,3.847,3.847,0,0,0-.71-.17l-.62-.06h-.9a.27.27,0,0,1-.29-.24.26.26,0,0,1,.17-.27,3.911,3.911,0,0,1,.48-.14,5.31,5.31,0,0,1,1.27-.11,4.566,4.566,0,0,1,.85.12,6.75,6.75,0,0,1,.93.31,10.638,10.638,0,0,1,.92.55l.74.64a10.357,10.357,0,0,1,.67.89,5.7,5.7,0,0,1,.47.92,4.663,4.663,0,0,1,.27.93c.06.3.05.59.08.86a4.9,4.9,0,0,1-.16,1.26,2.911,2.911,0,0,1-.16.46.268.268,0,0,1-.51-.11Z" fill="#262119"/>
        <rect id="Rectangle_33" data-name="Rectangle 33" width="4.99" height="4.71" rx="1.11" transform="matrix(0.746, -0.666, 0.666, 0.746, 402.344, 328.738)" fill="#262119"/>
        <rect id="Rectangle_34" data-name="Rectangle 34" width="4.98" height="4.71" rx="1.11" transform="matrix(0.746, -0.666, 0.666, 0.746, 393.853, 319.241)" fill="#262119"/>
        <g id="Group_1" data-name="Group 1" opacity="0.2">
          <path id="Path_87" data-name="Path 87" d="M281.69,88.11c-.47-.44-11.81-10.85-25.84-11.3-18.83-.62-27.63,10.89-28,11.38a3.49,3.49,0,0,0,5.57,4.19c.28-.38,7.13-9.09,22.2-8.61,11.37.37,21.22,9.35,21.32,9.44a3.481,3.481,0,0,0,4.74-5.1Z" fill="#5a287f"/>
          <path id="Path_88" data-name="Path 88" d="M256,92.39c-11.43-.5-17.48,4.25-20.08,7.13a3.483,3.483,0,1,0,5.17,4.67c1.43-1.59,5.71-5.23,14.61-4.84,6.07.26,10.73,4.14,13,6.43a3.486,3.486,0,0,0,5-4.86C270.64,97.89,264.41,92.76,256,92.39Z" fill="#5a287f"/>
          <path id="Path_89" data-name="Path 89" d="M247.19,109.83a3.51,3.51,0,0,0-.22,4.94,3.47,3.47,0,0,0,4.91.21c.7-.6,3.23-2.38,6.35.3a3.482,3.482,0,0,0,4.53-5.29,11.49,11.49,0,0,0-15.57-.16Z" fill="#5a287f"/>
        </g>
        <path id="Path_90" data-name="Path 90" d="M282.14,86.16c-.48-.44-11.81-10.84-25.84-11.3-18.83-.61-27.63,10.9-28,11.39a3.482,3.482,0,1,0,5.57,4.18c.28-.37,7.13-9.08,22.2-8.6,11.37.36,21.22,9.35,21.32,9.43a3.43,3.43,0,0,0,2.37.93,3.48,3.48,0,0,0,2.37-6Z" fill="#fff"/>
        <path id="Path_91" data-name="Path 91" d="M256.4,90.44c-11.43-.5-17.48,4.26-20.08,7.13a3.483,3.483,0,0,0,5.17,4.67c1.43-1.58,5.71-5.22,14.61-4.84,6.07.27,10.72,4.15,13,6.44A3.48,3.48,0,0,0,274,99C271.09,95.94,264.86,90.81,256.4,90.44Z" fill="#fff"/>
        <path id="Path_92" data-name="Path 92" d="M247.64,107.88a3.51,3.51,0,0,0-.22,4.94,3.47,3.47,0,0,0,4.9.22c.71-.61,3.24-2.38,6.36.29a3.482,3.482,0,0,0,4.53-5.29,11.49,11.49,0,0,0-15.57-.16Z" fill="#fff"/>
        <path id="Path_93" data-name="Path 93" d="M125.3,230.77a20.939,20.939,0,0,1,3.36-.23c5.08.13,13.56,3.34,19.27,16.06,3.88,8.62,10.46,27.71-8.76,38.3,6.16-5.13,7.71-17.76,3.23-30.65-4.85-14-15.06-23.29-23.52-21.9v-.19a50.6,50.6,0,0,1,6.42-1.39Z" fill="#cd864b"/>
        <path id="Path_94" data-name="Path 94" d="M132.49,257.69c2.67,7.69,2.19,14.84-1.07,16s-8.08-4.17-10.75-11.86-2.19-14.83,1.07-16S129.82,250,132.49,257.69Z" fill="#494144"/>
        <path id="Path_95" data-name="Path 95" d="M139.17,284.9a10.25,10.25,0,0,1-3.21,1.83c-8.74,3-20-6.58-25.2-21.48s-2.3-29.44,6.44-32.48a9.831,9.831,0,0,1,1.68-.42c8.46-1.39,18.67,7.94,23.52,21.9C146.88,267.14,145.33,279.77,139.17,284.9Zm-7.75-11.24c3.26-1.13,3.74-8.28,1.07-16s-7.48-13-10.75-11.86-3.75,8.29-1.07,16S128.15,274.8,131.42,273.66Z" fill="#685d64"/>
        <path id="Path_96" data-name="Path 96" d="M71.93,319.56c8-6.3,1.77-17.21-2.94-30-5-13.69-10-23.48-20.71-21.5v-.94c-.08-.21,1.16-.79,1.07-1,1.12-.22,8.45-2,13-1,7.25,1.69,14.3,7,19.28,17.53,2.75,5.83,4.78,18,2.5,23.78A27.33,27.33,0,0,1,72,319.66Z" fill="#685d64"/>
        <path id="Path_97" data-name="Path 97" d="M73.83,287c-3.92-10.63-13.49-22.75-24.23-20.77-18.44,6-16.52,22.26-12.61,32.93,5.46,14.88,19.3,26.94,30.67,22.76a15.419,15.419,0,0,0,4.27-2.4C79.89,313.26,78.55,299.84,73.83,287ZM57.65,308.16a11.49,11.49,0,0,1-6.2-3C57.67,308,63.39,308.58,57.65,308.16Z" fill="#cd864b"/>
        <path id="Path_98" data-name="Path 98" d="M125.3,230.77a50.594,50.594,0,0,0-6.47,1.39c-.81-1.95-14.27-33.23-43.73-34-26.27-.7-32.26,16.66-32.26,16.66a31.21,31.21,0,0,1,10.23-16.3c17.73-14.67,39.79-9.94,55.34,4.73h0a62.75,62.75,0,0,1,16.89,27.52Z" fill="#d6a645"/>
        <path id="Path_99" data-name="Path 99" d="M26.58,225.44c4.23-33.14,55.16-54.82,82.5-21.71-15.55-14.67-37.61-19.4-55.34-4.73-5.33,4.4-8,10.23-10.23,16.3-8.93,24.24.85,39.58,5.44,51.43.09.21.63,1.93.63,1.93,2,5,3,7.38,3,7.38s7,1.29,11.91,15.66c3.53,10.22,3.37,16.91-6.17,17C50,308.7,40,293.14,44.21,281.15c0,0-2-2.89-4.7-7.64C33.55,263,24.31,243.24,26.58,225.44Z" fill="#eac759"/>
        <path id="Path_100" data-name="Path 100" d="M52.58,281.29c-2.87,1.65,1.41,1.25,6.33,15,1.47,4.12.56,11.57,3.67,10.5C67.66,305,61.58,276.12,52.58,281.29Z" fill="#5a287f" opacity="0.1"/>
        <path id="Path_101" data-name="Path 101" d="M138.05,280a13.738,13.738,0,0,1,8.227,2.738c0-.188,0-.368,0-.548a17.11,17.11,0,0,1,34-2.53,7.244,7.244,0,0,1,9.24,10.61h.84a8.21,8.21,0,0,1,0,16.41H135a8.052,8.052,0,0,1-2.742-.481h-.378a13.84,13.84,0,0,1,6.21-26.2Z" fill="#5a287f" opacity="0.2"/>
        <path id="Path_102" data-name="Path 102" d="M140,276.68a13.74,13.74,0,0,1,8.23,2.73c0-.18,0-.36,0-.55a17.11,17.11,0,0,1,34-2.53,7.247,7.247,0,0,1,9.23,10.62h.85a8.21,8.21,0,0,1,0,16.41H136.9a8.3,8.3,0,0,1-2.74-.48h-.38a13.83,13.83,0,0,1,6.21-26.2Z" fill="#fff"/>
      </g>
    </g>
  </g>
</svg>
