<svg id="phone_iphone-24px" xmlns="http://www.w3.org/2000/svg" width="53.607" height="53.607" viewBox="0 0 53.607 53.607">
  <path id="Path_104" data-name="Path 104" d="M0,0H53.607V53.607H0Z" fill="none"/>
  <path id="Path_105" data-name="Path 105" d="M28.453,1H10.584A5.586,5.586,0,0,0,5,6.584V44.555a5.586,5.586,0,0,0,5.584,5.584H28.453a5.586,5.586,0,0,0,5.584-5.584V6.584A5.586,5.586,0,0,0,28.453,1ZM19.518,47.906a3.35,3.35,0,1,1,3.35-3.35A3.346,3.346,0,0,1,19.518,47.906ZM29.57,38.971H9.467V7.7h20.1Z" transform="translate(6.168 1.234)" fill="#d500f6"/>
</svg>
